:SAMPLES-PER-SECOND 24
:FULLY-SPECIFIED
:DEGREES
87
root  1.0862 40.764 31.2626 178.099 -64.4928 175.413
RightUpLeg  -0.791898 -4.67482 -17.8025
RightLeg  24.9618 7.67815 3.68185
RightFoot  6.38983 -1.39863 9.20861
RightToes  -1.74623e-010 0 -2.59999e-017
Spine  4.51062 -1.68214 -8.43186
Spine1  15.1639 -3.89241 4.46809
HEad  -16.6168 -36.7661 19.0575
LeftShoulder1  1.66566 -3.55458 -16.9167
LeftArm  34.4477 -13.6027 -59.3551
LeftForeArm  132.256 -72.0445 -144.511
LeftHand  0.056811 5.9675 14.512
RightShoulder  2.60545 4.93126 24.8083
RightArm  3.74701 -15.1954 38.8385
RightForeArm  8.26197 47.4358 11.6553
RightHand  -0.195369 -1.80925 -6.17037
LeftUpLeg  1.25562 5.46108 8.96096
LeftLeg  23.0054 -5.21889 -2.09232
LeftFoot  3.11033 1.70648 -13.5674
LeftToes  -6.27559e-011 -2.10356e-011 8.24929e-012
88
root  1.2388 39.6337 31.3683 177.179 -64.3318 175.441
RightUpLeg  -1.03101 -4.58561 -18.0317
RightLeg  30.0011 6.12368 3.57295
RightFoot  0.222402 -1.25176 12.3973
RightToes  -1.74623e-010 0 -2.59999e-017
Spine  5.78193 -1.55294 -8.20657
Spine1  15.4892 -3.84032 3.8426
HEad  -16.9831 -36.0882 18.5072
LeftShoulder1  1.60463 -3.40953 -16.4929
LeftArm  32.6156 -17.6835 -58.6751
LeftForeArm  131.997 -72.078 -144.405
LeftHand  0.0204452 5.69125 13.801
RightShoulder  2.53842 4.99339 23.7373
RightArm  3.72601 -13.394 37.972
RightForeArm  11.2234 55.9502 15.8969
RightHand  -0.239798 -1.82556 -7.56412
LeftUpLeg  0.713973 5.71277 9.45828
LeftLeg  28.1149 -7.0866 -3.74094
LeftFoot  -3.86153 0.876112 -12.9435
LeftToes  -6.27559e-011 -2.10356e-011 8.24929e-012
89
root  1.40499 38.1017 31.4351 176.898 -63.9349 175.038
RightUpLeg  -2.20634 -5.18997 -18.6412
RightLeg  35.4619 4.33671 3.06631
RightFoot  -10.6222 -0.165353 14.715
RightToes  -1.74623e-010 0 -2.59999e-017
Spine  5.83663 -1.25225 -8.59055
Spine1  17.226 -3.66105 3.25562
HEad  -18.3422 -35.3518 18.7996
LeftShoulder1  1.54504 -3.07884 -16.7755
LeftArm  30.6758 -23.7379 -58.1501
LeftForeArm  128.129 -72.7127 -142.422
LeftHand  0.0611678 6.03145 13.9818
RightShoulder  2.50224 5.0554 23.0597
RightArm  2.41638 -9.03245 36.8993
RightForeArm  12.4577 61.1955 19.8083
RightHand  -0.283332 -1.42777 -8.17009
LeftUpLeg  -0.898435 6.67132 9.96682
LeftLeg  34.9393 -7.57708 -5.28618
LeftFoot  -15.0237 -0.324223 -12.8323
LeftToes  -6.27559e-011 -2.10356e-011 8.24929e-012
90
root  1.57345 36.8711 31.475 176.518 -63.5527 175.091
RightUpLeg  -3.56068 -5.47772 -19.0577
RightLeg  39.6294 4.81622 3.99936
RightFoot  -18.7494 0.785308 14.0478
RightToes  -1.74623e-010 0 -2.59999e-017
Spine  4.55971 -0.639692 -8.95866
Spine1  20.9901 -3.13711 2.84167
HEad  -21.8236 -35.8357 21.418
LeftShoulder1  1.54197 -2.77615 -17.9446
LeftArm  29.7523 -29.9086 -58.7749
LeftForeArm  123.229 -74.2885 -137.575
LeftHand  0.10561 6.37262 14.4224
RightShoulder  2.67605 5.12805 24.9214
RightArm  -3.06916 -3.06922 34.5059
RightForeArm  18.4826 62.1075 19.9917
RightHand  -0.189849 -2.14728 -6.44921
LeftUpLeg  -2.71574 7.68639 10.4505
LeftLeg  40.4659 -7.16114 -6.09666
LeftFoot  -22.7611 -1.18526 -13.1838
LeftToes  -6.27559e-011 -2.10356e-011 8.24929e-012
91
root  1.57594 36.79 31.452 175.587 -63.3078 176.358
RightUpLeg  -3.55624 -6.36556 -18.7931
RightLeg  39.4508 5.81514 4.85381
RightFoot  -19.1396 0.785299 13.3321
RightToes  -1.74623e-010 0 -2.59999e-017
Spine  3.49466 -0.203873 -8.65203
Spine1  23.1721 -2.765 2.94714
HEad  -24.0563 -36.8581 23.5352
LeftShoulder1  1.67392 -2.88329 -19.7244
LeftArm  28.481 -27.6562 -59.4839
LeftForeArm  125.986 -75.072 -135.792
LeftHand  0.0627475 6.09432 13.1767
RightShoulder  2.99725 5.31719 28.0207
RightArm  -11.5934 -1.42708 34.2855
RightForeArm  28.6793 60.6327 17.5078
RightHand  -0.125449 -3.85101 -8.67637
LeftUpLeg  -2.54659 8.08876 10.9482
LeftLeg  39.8646 -6.39126 -5.29603
LeftFoot  -23.5101 -1.26727 -13.134
LeftToes  -6.27559e-011 -2.10356e-011 8.24929e-012
92
root  1.37044 37.9111 31.3055 174.868 -62.6197 178.218
RightUpLeg  -3.01532 -8.41125 -18.1494
RightLeg  35.6223 8.0322 5.89794
RightFoot  -11.8546 -0.0243691 14.1184
RightToes  -1.74623e-010 0 -2.59999e-017
Spine  3.16129 -0.28046 -8.2838
Spine1  21.798 -2.97245 3.81408
HEad  -22.3928 -36.9107 22.3805
LeftShoulder1  1.82635 -3.03826 -21.5574
LeftArm  26.9005 -15.3808 -58.7585
LeftForeArm  133.269 -73.7897 -140.696
LeftHand  0.051633 6.01515 12.87
RightShoulder  3.21022 5.51696 29.6747
RightArm  -15.9384 -5.65728 37.235
RightForeArm  30.3733 60.2748 17.0239
RightHand  0.255166 -7.03717 -18.3038
LeftUpLeg  -0.515295 8.06065 11.4084
LeftLeg  33.7795 -6.17874 -4.0399
LeftFoot  -17.8285 -0.671955 -13.6708
LeftToes  -6.27559e-011 -2.10356e-011 8.24929e-012
93
root  1.13899 39.3587 31.0918 174.675 -60.692 179.936
RightUpLeg  -3.95156 -10.6974 -17.3043
RightLeg  32.1729 11.9925 7.80399
RightFoot  -0.254631 -1.36911 14.024
RightToes  -1.74623e-010 0 -2.59999e-017
Spine  2.64054 -0.253899 -8.04785
Spine1  19.6391 -3.02793 4.98751
HEad  -19.3788 -36.0824 20.0766
LeftShoulder1  1.9604 -3.20815 -22.9261
LeftArm  26.079 -2.59501 -57.1747
LeftForeArm  135.362 -72.6018 -143.831
LeftHand  -0.00679493 5.48967 11.8477
RightShoulder  3.30941 5.60856 30.4189
RightArm  -13.7796 -11.5067 38.1601
RightForeArm  23.0976 61.586 18.9579
RightHand  0.422717 -7.54303 -23.0737
LeftUpLeg  1.33431 8.33864 11.805
LeftLeg  27.0778 -3.82877 -1.76922
LeftFoot  -8.05534 0.47419 -14.7876
LeftToes  -6.27559e-011 -2.10356e-011 8.24929e-012
